# xmcd
#
# Track frame offsets:
#	150
#	16700
#	31257
#	45015
#	58939
#	76100
#	89282
#	102407
#	114740
#	130677
#
# Disc length: 1939 seconds
#
# Revision: 0
# Processed by: cddbd v1.5.1PL0 Copyright (c) Steve Scherf et al.
# Submitted via: dBpowerAMP V4.0
#
DISCID=6c07910a
DTITLE=Donnie Dean Williams - Sheets Of Stone
DYEAR=1900
DGENRE=Country
TTITLE0=Are You Still In Love
TTITLE1=Live Live Live
TTITLE2=The Hardest Part
TTITLE3=True Blue Love
TTITLE4=Sheets Of Stone
TTITLE5=Like It Or Not
TTITLE6=Throwin' Stones
TTITLE7=Ran Outta' Money
TTITLE8=If You Think You're Lonely
TTITLE9=Standin' Invitation
EXTD=Donnie Dean Williams\nSheets Of Stone
EXTT0=
EXTT1=
EXTT2=
EXTT3=
EXTT4=
EXTT5=
EXTT6=
EXTT7=
EXTT8=
EXTT9=
PLAYORDER=
